# xmcd
#
# Track frame offsets:
#	150
#	16370
#	29373
#	44578
#	57356
#	72454
#	88357
#	113868
#	133321
#	156710
#	173105
#	190812
#	207467
#	230346
#
# Disc length: 3462 seconds
#
# Revision: 1
# Processed by: cddbd v1.5.2PL0 Copyright (c) Steve Scherf et al.
# Submitted via: audiograbber 1.83.01
#
DISCID=d70d840e
DTITLE=Dolly Parton - Acoustic Collection 1999-2002 [CD 3)
DYEAR=2006
DGENRE=Country
TTITLE0=Halos And Horns
TTITLE1=Sugar Hill
TTITLE2=Not For Me
TTITLE3=Hello God
TTITLE4=If
TTITLE5=Shattered Image
TTITLE6=These Old Bones
TTITLE7=What A Heartache
TTITLE8=I'm Gone
TTITLE9=Raven Dove
TTITLE10=Dagger Through The Heart
TTITLE11=If Only
TTITLE12=John Daniel
TTITLE13=Stairway To Heaven
EXTD=
EXTT0=
EXTT1=
EXTT2=
EXTT3=
EXTT4=
EXTT5=
EXTT6=
EXTT7=
EXTT8=
EXTT9=
EXTT10=
EXTT11=
EXTT12=
EXTT13=
PLAYORDER=
